<?xml version="1.0" encoding="utf-8"?>
<!-- Generator: Adobe Illustrator 27.0.1, SVG Export Plug-In . SVG Version: 6.00 Build 0)  -->
<svg version="1.1" xmlns="http://www.w3.org/2000/svg" xmlns:xlink="http://www.w3.org/1999/xlink" x="0px" y="0px"
	 viewBox="0 0 595.28 841.89" style="enable-background:new 0 0 595.28 841.89;" xml:space="preserve">
<style type="text/css">
	.st0{fill:none;stroke:#E52320;stroke-width:4;stroke-miterlimit:10;}
	.st1{fill:#E52320;}
	.st2{fill:#FFFFFF;}
</style>
<g id="Слой_1" opacity="0">
	<rect width="595.28" height="841.89"/>
</g>
<g id="Слой_2">
	<line class="st0" x1="220.84" y1="402.76" x2="266.44" y2="402.76"/>
	<line class="st0" x1="228.79" y1="419.87" x2="228.79" y2="400.97"/>
	<line class="st0" x1="243.37" y1="419.87" x2="243.37" y2="397.48"/>
	<line class="st0" x1="259.25" y1="419.87" x2="259.25" y2="400.97"/>
	<line class="st0" x1="223.02" y1="429.15" x2="267.4" y2="429.15"/>
	<polygon class="st1" points="224.42,444.13 232.95,444.13 243.08,430.09 234.21,430.09 	"/>
	<polygon class="st1" points="265.31,444.13 256.77,444.13 246.64,430.09 255.51,430.09 	"/>
	<g>
		<g>
			<g>
				<path class="st2" d="M300.12,423.94c0,3.14-0.85,5.5-2.54,7.07c-1.7,1.57-4.25,2.35-7.66,2.35c-3.26,0-5.7-0.75-7.33-2.26
					c-1.63-1.5-2.44-3.77-2.44-6.79v-13.65h3.14v13.48c0,2.28,0.58,4,1.74,5.14c1.16,1.15,2.9,1.72,5.22,1.72
					c2.25,0,3.93-0.55,5.04-1.66c1.12-1.1,1.68-2.76,1.68-4.97v-13.71h3.14V423.94z"/>
				<path class="st2" d="M336.18,432.98h-3.13v-14.97c0-0.59,0.02-1.25,0.07-1.98c0.04-0.73,0.11-1.52,0.2-2.37h-0.07
					c-0.15,0.5-0.29,0.93-0.42,1.29c-0.13,0.36-0.26,0.65-0.38,0.87l-9.17,17.15h-1.53l-9.15-17.03c-0.12-0.25-0.26-0.57-0.39-0.95
					c-0.14-0.38-0.27-0.83-0.41-1.34h-0.08c0.05,0.45,0.09,1.03,0.11,1.76c0.02,0.73,0.04,1.6,0.04,2.61v14.94h-3.03v-22.32h4.16
					l8.24,15.56c0.32,0.59,0.59,1.11,0.8,1.56c0.21,0.45,0.35,0.82,0.44,1.12h0.11c0.27-0.61,0.52-1.15,0.73-1.6
					c0.21-0.46,0.4-0.83,0.56-1.14l8.4-15.5h3.93V432.98z"/>
				<path class="st2" d="M342.12,432.98l10.29-22.32h3.26l10.33,22.32h-3.48l-2.71-5.98h-11.62l-2.56,5.98H342.12z M349.23,424.65
					h9.55l-4.34-9.79c-0.07-0.16-0.14-0.36-0.21-0.61s-0.13-0.54-0.21-0.89h-0.07c-0.06,0.31-0.13,0.59-0.2,0.84
					s-0.15,0.47-0.23,0.65L349.23,424.65z"/>
				<path class="st2" d="M375.09,432.98h-3.15v-22.32h3.15V432.98z"/>
			</g>
		</g>
	</g>
</g>
</svg>
